<svg width="23" height="23" viewBox="0 0 23 23" fill="none" xmlns="http://www.w3.org/2000/svg">
<path d="M16.8808 13.9931C15.3601 13.9931 14.1232 15.2301 14.1232 16.7507C14.1232 18.2714 15.3601 19.5083 16.8808 19.5083C18.4017 19.5083 19.6384 18.2714 19.6384 16.7507C19.6384 15.2301 18.4014 13.9931 16.8808 13.9931ZM16.8808 17.9795C16.2032 17.9795 15.652 17.4283 15.652 16.7507C15.652 16.0731 16.2032 15.5219 16.8808 15.5219C17.5584 15.5219 18.1096 16.0731 18.1096 16.7507C18.1096 17.4283 17.5584 17.9795 16.8808 17.9795Z" fill="#9DB8FF" stroke="#9DB8FF" stroke-width="0.2"/>
<path d="M7.80095 13.9931C6.2803 13.9931 5.04337 15.2301 5.04337 16.7507C5.04337 18.2714 6.2803 19.5083 7.80095 19.5083C9.3216 19.5083 10.5585 18.2714 10.5585 16.7507C10.5585 15.2301 9.3216 13.9931 7.80095 13.9931ZM7.80095 17.9795C7.12337 17.9795 6.57216 17.4283 6.57216 16.7507C6.57216 16.0731 7.12337 15.5219 7.80095 15.5219C8.47834 15.5219 9.02975 16.0731 9.02975 16.7507C9.02975 17.4283 8.47854 17.9795 7.80095 17.9795Z" fill="#9DB8FF" stroke="#9DB8FF" stroke-width="0.2"/>
<path d="M18.7605 6.44143L18.7605 6.44138C18.6306 6.18331 18.3664 6.02048 18.0774 6.02048H14.5783H14.4783V6.12048V7.44928V7.54928H14.5783H17.606L19.3875 11.0925L19.4324 11.1819L19.5218 11.137L20.7093 10.5399L20.7986 10.495L20.7537 10.4056L18.7605 6.44143Z" fill="#9DB8FF" stroke="#9DB8FF" stroke-width="0.2"/>
<path d="M14.9884 16.1085V16.0085H14.8884H9.86111H9.76111V16.1085V17.4373V17.5373H9.86111H14.8884H14.9884V17.4373V16.1085Z" fill="#9DB8FF" stroke="#9DB8FF" stroke-width="0.2"/>
<path d="M5.80797 16.0084H3.50477C3.08255 16.0084 2.74039 16.3506 2.74039 16.7728C2.74039 17.195 3.0826 17.5372 3.50477 17.5372H5.80801C6.23023 17.5372 6.57239 17.1949 6.57239 16.7728C6.57239 16.3506 6.23017 16.0084 5.80797 16.0084Z" fill="#9DB8FF" stroke="#9DB8FF" stroke-width="0.2"/>
<path d="M21.9808 11.9855L21.9808 11.9855L20.674 10.3024C20.5295 10.1158 20.3065 10.0068 20.0703 10.0068H15.3424V5.456C15.3424 5.03378 15.0002 4.69163 14.578 4.69163H3.50477C3.08255 4.69163 2.74039 5.03383 2.74039 5.456C2.74039 5.87817 3.0826 6.22038 3.50477 6.22038H13.8136V10.7711C13.8136 11.1933 14.1558 11.5355 14.578 11.5355H19.696L20.6125 12.7162V16.0084H18.8744C18.4522 16.0084 18.11 16.3506 18.11 16.7728C18.11 17.195 18.4522 17.5372 18.8744 17.5372H21.3769C21.7991 17.5372 22.1413 17.1949 22.1413 16.7728V12.4543C22.1413 12.2846 22.0848 12.1195 21.9808 11.9855Z" fill="#9DB8FF" stroke="#9DB8FF" stroke-width="0.2"/>
<path d="M2.7085 12.6422H5.76474C6.1869 12.6422 6.52911 12.9844 6.52907 13.4066L2.7085 12.6422ZM2.7085 12.6422C2.28629 12.6422 1.94413 12.9844 1.94413 13.4066M2.7085 12.6422L1.94413 13.4066M1.94413 13.4066C1.94413 13.8288 2.28634 14.1709 2.7085 14.1709M1.94413 13.4066L2.7085 14.1709M2.7085 14.1709H5.7647M2.7085 14.1709H5.7647M5.7647 14.1709C6.18691 14.1709 6.52907 13.8287 6.52907 13.4066L5.7647 14.1709Z" fill="#9DB8FF" stroke="#9DB8FF" stroke-width="0.2"/>
<path d="M7.29223 10.0289H1.62272C1.20054 10.0289 0.858344 10.3711 0.858344 10.7933C0.858344 11.2155 1.20055 11.5577 1.62272 11.5577H7.29223C7.71444 11.5577 8.0566 11.2155 8.0566 10.7933C8.0566 10.3712 7.71445 10.0289 7.29223 10.0289Z" fill="#9DB8FF" stroke="#9DB8FF" stroke-width="0.2"/>
<path d="M2.7085 7.41562H8.37801C8.80021 7.41562 9.14243 7.75782 9.14239 8.18L2.7085 7.41562ZM2.7085 7.41562C2.28629 7.41562 1.94413 7.75783 1.94413 8.18M2.7085 7.41562L1.94413 8.18M1.94413 8.18C1.94413 8.60222 2.28634 8.94438 2.7085 8.94438M1.94413 8.18L2.7085 8.94438M2.7085 8.94438H8.37801M2.7085 8.94438H8.37801M8.37801 8.94438C8.80022 8.94438 9.14238 8.60217 9.14239 8.18001L8.37801 8.94438Z" fill="#9DB8FF" stroke="#9DB8FF" stroke-width="0.2"/>
</svg>
