<svg width="23" height="23" viewBox="0 0 23 23" fill="none" xmlns="http://www.w3.org/2000/svg">
<path d="M14.6584 12.6113L6.27039 4.22331C6.06974 4.60828 5.754 4.92404 5.369 5.1247L13.757 13.5126H14.6584V12.6113ZM20.43 14.3689L20.43 14.3689L19.6737 13.6126H16.1333V16.2631C17.1364 16.2808 18.0117 16.8289 18.492 17.6376H19.9792C20.3306 17.6376 20.6167 17.3516 20.6167 17.0001V16.3626H19.9792C19.5719 16.3626 19.2416 16.0325 19.2416 15.6251C19.2416 15.2179 19.5718 14.8876 19.9792 14.8876H20.6167V14.8196C20.6167 14.6493 20.5504 14.4893 20.43 14.3689ZM3.02082 13.5126H11.671L5.13333 6.97493V7.75026C5.13333 8.52922 4.73897 9.22391 4.09988 9.5602C3.88913 9.67107 3.75834 9.88746 3.75834 10.1251C3.75834 10.4766 4.04438 10.7626 4.39585 10.7626C4.74733 10.7626 5.03337 10.4766 5.03337 10.1251C5.03337 9.71782 5.36356 9.38759 5.77088 9.38759C6.1782 9.38759 6.5084 9.71778 6.5084 10.1251C6.5084 11.29 5.56077 12.2376 4.3959 12.2376C3.23102 12.2376 2.28339 11.29 2.28339 10.1251C2.28339 9.33813 2.71634 8.6214 3.41311 8.2548C3.55401 8.18064 3.65838 7.98123 3.65838 7.75018V5.49986C3.46578 5.30728 3.31713 5.15888 3.20197 5.04391C3.0496 4.8918 2.95585 4.79822 2.89652 4.73825C2.84409 4.68526 2.81743 4.65744 2.80074 4.63829C2.78655 4.62201 2.77907 4.61134 2.77064 4.59933C2.76895 4.59693 2.76723 4.59447 2.7654 4.5919C2.46441 4.22682 2.28335 3.75918 2.28335 3.25012C2.28335 2.08524 3.23097 1.13762 4.39585 1.13762C4.97256 1.13762 5.52456 1.39149 5.83041 1.69743L14.6583 10.5253V8.75011C14.6583 8.34284 14.9885 8.0126 15.3958 8.0126H18.6042C19.769 8.0126 20.7167 8.96022 20.7167 10.1251V12.5696L21.4729 13.3259C21.8718 13.7248 22.0917 14.2555 22.0917 14.8196V17.0001C22.0917 18.165 21.144 19.1126 19.9792 19.1126H18.8829C18.8561 20.6336 17.6106 21.8626 16.0833 21.8626C14.556 21.8626 13.3105 20.6336 13.2837 19.1126H9.25785C9.23108 20.6336 7.98554 21.8626 6.45827 21.8626C4.93101 21.8626 3.68546 20.6336 3.6587 19.1126H3.02074C1.85586 19.1126 0.908239 18.165 0.908239 17.0001V15.6251C0.908323 14.4603 1.85595 13.5126 3.02082 13.5126ZM4.39581 2.61265C4.04434 2.61265 3.7583 2.89869 3.7583 3.25016C3.7583 3.60164 4.04434 3.88768 4.39581 3.88768C4.74729 3.88768 5.03333 3.60164 5.03333 3.25016C5.03333 2.89865 4.74729 2.61265 4.39581 2.61265ZM19.2416 10.1251C19.2416 9.77367 18.9556 9.48763 18.6041 9.48763H16.1333V12.1376H19.2416V10.1251ZM16.0833 20.3876C16.8139 20.3876 17.4083 19.7932 17.4083 19.0626C17.4083 18.3321 16.8139 17.7376 16.0833 17.7376C15.3527 17.7376 14.7583 18.3321 14.7583 19.0626C14.7583 19.7932 15.3527 20.3876 16.0833 20.3876ZM6.45831 20.3876C7.18888 20.3876 7.7833 19.7932 7.7833 19.0626C7.7833 18.3321 7.18888 17.7376 6.45831 17.7376C5.72775 17.7376 5.13333 18.3321 5.13333 19.0626C5.13333 19.7932 5.72775 20.3876 6.45831 20.3876ZM2.38331 17.0001C2.38331 17.3516 2.66935 17.6376 3.02082 17.6376H4.04966C4.53788 16.8155 5.43437 16.2626 6.45831 16.2626C7.48226 16.2626 8.37875 16.8155 8.86697 17.6376H13.6747C13.9149 17.2331 14.2538 16.8942 14.6583 16.654V14.9876H3.02082C2.66935 14.9876 2.38331 15.2737 2.38331 15.6251V17.0001Z" fill="#9DB8FF" stroke="#9DB8FF" stroke-width="0.1"/>
</svg>
