<svg width="23" height="23" viewBox="0 0 23 23" fill="none" xmlns="http://www.w3.org/2000/svg">
<path d="M19.5634 13.8916L18.6788 14.3578V14.3578L19.5634 13.8916ZM15.56 6.29404L16.4447 5.82786V5.82786L15.56 6.29404ZM7.43998 6.29404L6.55529 5.82787V5.82787L7.43998 6.29404ZM3.43653 13.8916L4.32122 14.3578H4.32122L3.43653 13.8916ZM12.7157 2.17632L13.1261 1.26441V1.26441L12.7157 2.17632ZM10.2843 2.17632L10.6946 3.08823L10.2843 2.17632ZM19.8837 19.6389L20.4366 20.4722L19.8837 19.6389ZM21.0642 17.8264L20.0761 17.6726L21.0642 17.8264ZM3.11629 19.6389L2.56333 20.4722H2.56333L3.11629 19.6389ZM1.93575 17.8264L2.92384 17.6726L1.93575 17.8264ZM12.5 8.62047C12.4975 8.06819 12.0478 7.62249 11.4955 7.62497C10.9432 7.62745 10.4975 8.07717 10.5 8.62945L12.5 8.62047ZM10.5215 13.421C10.524 13.9733 10.9737 14.419 11.526 14.4165C12.0783 14.4141 12.524 13.9643 12.5215 13.4121L10.5215 13.421ZM12.5 16.2916C12.5 15.7393 12.0523 15.2916 11.5 15.2916C10.9477 15.2916 10.5 15.7393 10.5 16.2916H12.5ZM10.5 16.3012C10.5 16.8535 10.9477 17.3012 11.5 17.3012C12.0523 17.3012 12.5 16.8535 12.5 16.3012H10.5ZM7.49654 21.125H15.5034V19.125H7.49654V21.125ZM20.4481 13.4254L16.4447 5.82786L14.6753 6.76022L18.6788 14.3578L20.4481 13.4254ZM6.55529 5.82787L2.55184 13.4254L4.32122 14.3578L8.32467 6.76022L6.55529 5.82787ZM16.4447 5.82786C15.8008 4.60592 15.2857 3.62606 14.8167 2.90778C14.3534 2.19804 13.8385 1.585 13.1261 1.26441L12.3053 3.08823C12.4771 3.16554 12.731 3.37142 13.142 4.00109C13.5475 4.62222 14.0125 5.50228 14.6753 6.76022L16.4447 5.82786ZM8.32467 6.76022C8.98753 5.50228 9.45245 4.62222 9.85795 4.00109C10.269 3.37142 10.5229 3.16554 10.6946 3.08823L9.87387 1.26441C9.16149 1.585 8.64657 2.19804 8.18323 2.90778C7.71431 3.62606 7.19918 4.60592 6.55529 5.82787L8.32467 6.76022ZM13.1261 1.26441C12.0957 0.800698 10.9043 0.800698 9.87387 1.26441L10.6946 3.08823C11.2031 2.85942 11.7969 2.85942 12.3053 3.08823L13.1261 1.26441ZM15.5034 21.125C16.7009 21.125 17.6644 21.1259 18.4174 21.0605C19.1669 20.9954 19.8583 20.856 20.4366 20.4722L19.3307 18.8057C19.1767 18.9079 18.894 19.0115 18.2444 19.068C17.5984 19.1241 16.7379 19.125 15.5034 19.125V21.125ZM18.6788 14.3578C19.232 15.4077 19.6127 16.1324 19.846 16.6991C20.0802 17.2682 20.0987 17.5276 20.0761 17.6726L22.0523 17.9803C22.1604 17.2864 21.9723 16.6104 21.6954 15.9378C21.4175 15.2627 20.9825 14.4394 20.4481 13.4254L18.6788 14.3578ZM20.4366 20.4722C21.3008 19.8987 21.8934 19.0012 22.0523 17.9803L20.0761 17.6726C20.007 18.1167 19.7455 18.5304 19.3307 18.8057L20.4366 20.4722ZM7.49654 19.125C6.26205 19.125 5.40159 19.1241 4.75558 19.068C4.10598 19.0115 3.82326 18.9079 3.66925 18.8057L2.56333 20.4722C3.14166 20.856 3.83309 20.9954 4.58254 21.0605C5.33559 21.1259 6.29909 21.125 7.49654 21.125V19.125ZM2.55184 13.4254C2.01751 14.4394 1.58247 15.2627 1.30459 15.9378C1.02772 16.6104 0.839609 17.2864 0.947657 17.9803L2.92384 17.6726C2.90127 17.5276 2.91975 17.2682 3.15402 16.6991C3.38729 16.1324 3.76795 15.4077 4.32122 14.3578L2.55184 13.4254ZM3.66926 18.8057C3.25443 18.5304 2.99299 18.1167 2.92384 17.6726L0.947657 17.9803C1.10662 19.0012 1.6992 19.8987 2.56333 20.4722L3.66926 18.8057ZM10.5 8.62945L10.5215 13.421L12.5215 13.4121L12.5 8.62047L10.5 8.62945ZM10.5 16.2916V16.3012H12.5V16.2916H10.5Z" fill="#9DB8FF"/>
</svg>
